<?xml version="1.0" encoding="UTF-8"?>
<svg xmlns="http://www.w3.org/2000/svg" xmlns:xlink="http://www.w3.org/1999/xlink" viewBox="0 0 48 48" version="1.1" width="50px" height="50px">
<g id="surface1">
<path style="fill:none;stroke-width:2;stroke-linecap:butt;stroke-linejoin:miter;stroke:#BDBDBD;stroke-opacity:1;stroke-miterlimit:10;" d="M 8 25 L 8 9 C 8 7.300781 9.398438 6 11 6 L 37 6 C 38.699219 6 40 7.300781 40 9 L 40 25 "/>
<path style=" fill:#0277BD;" d="M 25 20 C 25 17.199219 27.199219 15 30 15 C 32.800781 15 35 17.199219 35 20 C 35 22.800781 32.800781 25 30 25 C 27.199219 25 25 22.800781 25 20 Z M 43.800781 21.601563 C 43.898438 21.398438 44 21.300781 44 21 C 44 20.398438 43.601563 20 43 20 C 42.800781 20 42.601563 20.101563 42.398438 20.199219 C 42.398438 20.199219 42.300781 20.300781 42.300781 20.300781 C 41.398438 21.199219 36.199219 26 31 26 L 27.300781 26 C 26 26 25 27.101563 25 28.300781 L 25 39.398438 C 25 41.398438 26.601563 43 28.601563 43 L 29.898438 43 C 33.800781 43 37.101563 39.800781 37.101563 35.800781 C 37.101563 35.800781 37.199219 32.199219 35.699219 29.800781 C 38.800781 28.5 43.300781 23.601563 43.800781 21.601563 Z "/>
<path style=" fill:#01579B;" d="M 25 30.699219 L 25 34.800781 C 26.898438 34.199219 31.199219 32.300781 31 28 C 28.5 30.398438 26.300781 30.800781 25 30.699219 Z "/>
<path style=" fill:#FB8C00;" d="M 18 15 C 20.800781 15 23 17.199219 23 20 C 23 22.800781 20.800781 25 18 25 C 15.199219 25 13 22.800781 13 20 C 13 17.199219 15.199219 15 18 15 Z M 31 28 C 31 27.398438 30.601563 27 30 27 C 29.601563 27 29.199219 27.300781 29.101563 27.601563 C 28 29.601563 25.800781 30.800781 22.300781 26.5 L 22.300781 26.601563 C 21.898438 26.199219 21.300781 26 20.699219 26 L 17 26 C 11.800781 26 6.601563 21.199219 5.699219 20.300781 C 5.699219 20.300781 5.601563 20.199219 5.601563 20.199219 C 5.398438 20.101563 5.199219 20 5 20 C 4.398438 20 4 20.398438 4 21 C 4 21.199219 4.101563 21.398438 4.199219 21.601563 C 4.699219 23.601563 9.199219 28.601563 12.398438 29.800781 C 10.898438 32.300781 11 35.800781 11 35.800781 C 11 39.699219 14.199219 43 18.199219 43 L 19.5 43 C 21.5 43 23.101563 41.398438 23.101563 39.398438 L 23.101563 31.800781 C 25.101563 32.699219 29.5 33.101563 30.898438 28.5 C 30.898438 28.398438 31 28.199219 31 28 Z "/>
</g>
</svg>
